<?xml version="1.0" standalone="no"?>
<!DOCTYPE svg PUBLIC "-//W3C//DTD SVG 20010904//EN"
 "http://www.w3.org/TR/2001/REC-SVG-20010904/DTD/svg10.dtd">
<svg version="1.0" xmlns="http://www.w3.org/2000/svg"
 width="800.000000pt" height="800.000000pt" viewBox="0 0 800.000000 800.000000"
 preserveAspectRatio="xMidYMid meet">

<g transform="translate(0.000000,800.000000) scale(0.100000,-0.100000)"
fill="#000000" stroke="none">
<path d="M3947 7307 c-267 -549 -373 -1196 -301 -1837 42 -372 137 -700 313
-1082 17 -38 35 -68 39 -68 22 0 163 338 226 540 211 683 203 1404 -25 2085
-55 162 -177 446 -195 452 -6 2 -32 -39 -57 -90z"/>
<path d="M3498 6553 c-7 -16 -38 -71 -69 -123 -30 -52 -102 -176 -159 -275
-57 -99 -140 -243 -185 -320 -45 -77 -103 -178 -129 -225 -27 -47 -72 -125
-101 -175 -57 -97 -126 -217 -225 -390 -35 -60 -82 -141 -105 -180 -23 -38
-148 -254 -277 -480 -130 -225 -293 -509 -363 -630 -70 -121 -144 -249 -165
-285 -120 -211 -313 -546 -320 -555 -4 -5 -18 -28 -30 -50 -12 -22 -65 -113
-116 -202 -52 -89 -94 -164 -94 -168 0 -21 473 47 661 95 364 93 626 207 1012
441 93 57 291 208 397 304 139 126 377 375 405 424 6 9 35 48 66 87 68 85 178
251 185 280 7 28 -42 127 -58 118 -6 -4 -8 -3 -4 4 3 6 -12 50 -35 99 -22 48
-56 126 -75 173 -19 47 -39 94 -44 105 -9 20 -79 227 -85 255 -2 8 -17 69 -33
135 -79 315 -97 481 -96 865 1 250 4 332 21 455 12 83 19 154 16 159 -3 4 -1
11 4 15 10 6 26 71 18 71 -3 0 -11 -12 -17 -27z"/>
<path d="M4494 6521 c4 -54 15 -65 12 -12 -1 22 -5 43 -8 47 -4 3 -5 -13 -4
-35z"/>
<path d="M4522 6503 c1 -4 -1 -26 -5 -48 -4 -23 -1 -90 8 -155 22 -165 31
-552 16 -714 -31 -335 -92 -627 -180 -871 -12 -33 -29 -80 -38 -105 -8 -25
-33 -85 -55 -135 -22 -49 -45 -103 -52 -120 -6 -16 -30 -65 -54 -108 -24 -43
-40 -82 -37 -87 3 -5 -2 -13 -10 -18 -28 -15 189 -324 359 -512 183 -203 363
-369 381 -352 5 4 5 2 2 -4 -11 -20 243 -208 418 -310 27 -16 63 -37 80 -47
62 -37 319 -159 412 -196 172 -68 401 -135 583 -170 91 -17 167 -27 433 -56
35 -4 47 -2 47 8 0 12 -111 208 -345 612 -32 55 -108 186 -168 290 -61 105
-121 207 -133 227 -13 21 -24 40 -24 43 0 2 -19 35 -41 72 -23 38 -55 91 -70
120 -42 77 -53 97 -59 103 -3 3 -11 15 -18 27 -77 140 -123 219 -269 473 -93
162 -191 331 -217 375 -63 106 -57 96 -122 210 -31 55 -78 136 -104 180 -25
44 -80 139 -121 210 -40 72 -76 132 -79 135 -3 3 -16 25 -29 50 -13 25 -53 96
-90 158 -36 63 -84 146 -105 185 -22 40 -42 74 -45 77 -3 3 -12 15 -19 27
-162 291 -197 350 -208 346 -18 -6 -37 25 -32 52 3 14 1 28 -4 31 -4 3 -8 2
-6 -3z"/>
<path d="M4540 6470 c0 -8 5 -22 10 -30 9 -13 10 -13 10 0 0 8 -5 22 -10 30
-9 13 -10 13 -10 0z"/>
<path d="M3977 3931 c-88 -149 -288 -393 -476 -581 -219 -219 -422 -377 -676
-529 -217 -129 -569 -292 -666 -307 -22 -4 -39 -10 -39 -15 0 -5 819 -9 1885
-9 1037 0 1885 2 1885 4 0 3 -26 12 -57 21 -216 63 -561 235 -818 409 -377
254 -732 615 -985 998 -14 21 -27 38 -30 38 -3 0 -13 -13 -23 -29z"/>
<path d="M1170 1673 l0 -483 203 0 c202 0 323 13 310 33 -3 6 -1 7 6 3 33 -20
184 86 239 168 93 137 102 369 22 527 -24 47 -111 133 -167 166 -86 50 -122
56 -376 62 l-237 6 0 -482z m512 354 c76 -34 145 -100 176 -167 24 -50 27 -66
27 -185 0 -120 -2 -134 -27 -187 -35 -75 -103 -141 -175 -169 -51 -20 -81 -23
-235 -27 l-178 -4 0 379 c0 209 3 383 8 387 4 5 84 6 178 4 156 -4 175 -7 226
-31z"/>
<path d="M6310 2113 c-12 -26 -42 -95 -67 -153 -65 -154 -92 -216 -133 -305
-21 -44 -57 -125 -80 -179 -23 -54 -45 -106 -50 -115 -15 -28 -70 -161 -70
-168 0 -2 26 -3 57 -1 l57 3 50 118 50 117 247 0 246 0 47 -109 c25 -60 46
-114 46 -120 0 -7 24 -11 65 -11 l65 0 -14 33 c-98 231 -199 468 -266 627
-134 319 -123 300 -164 300 -19 0 -41 3 -49 6 -11 4 -22 -8 -37 -43z m95 -145
c10 -29 51 -138 92 -241 41 -104 72 -191 69 -194 -7 -7 -385 -7 -392 0 -3 2
22 67 54 143 32 77 78 185 102 242 24 56 47 102 51 102 4 0 15 -24 24 -52z
m-348 -550 c-3 -8 -6 -5 -6 6 -1 11 2 17 5 13 3 -3 4 -12 1 -19z m-79 -169
c-3 -8 -7 -3 -11 10 -4 17 -3 21 5 13 5 -5 8 -16 6 -23z"/>
<path d="M2585 1670 l0 -481 307 1 c305 2 306 2 312 23 3 12 6 35 6 50 l0 28
-257 -2 -258 -2 -3 182 -2 181 230 0 230 0 0 45 0 45 -230 0 -230 0 0 160 0
160 138 2 c172 3 228 6 271 14 19 4 31 3 28 -2 -3 -5 8 -10 24 -11 16 -1 29 2
29 7 0 5 -8 7 -17 3 -17 -5 -17 -5 -1 8 16 13 22 30 19 57 -1 9 -68 12 -299
12 l-297 0 0 -480z m22 -377 c-3 -10 -5 -4 -5 12 0 17 2 24 5 18 2 -7 2 -21 0
-30z"/>
<path d="M3780 1669 l0 -480 273 3 272 3 0 45 0 45 -220 1 -220 1 -3 432 -2
431 -50 0 -50 0 0 -481z"/>
<path d="M4740 2105 l0 -45 155 0 c117 0 155 3 156 13 1 6 4 1 8 -11 3 -13 6
-214 6 -447 l0 -423 47 0 48 -1 2 432 3 432 142 3 c124 2 142 5 146 20 4 16 5
16 6 0 0 -10 7 -18 14 -18 7 0 13 17 15 45 l2 45 -375 0 -375 0 0 -45z"/>
<path d="M1196 868 c-8 -61 -1 -273 9 -275 12 -3 14 148 2 225 -4 28 -4 52 0
52 8 0 48 -81 104 -212 31 -73 49 -90 49 -48 0 10 4 21 9 25 5 3 24 42 41 88
17 45 40 93 51 107 l20 25 -4 -119 c-5 -121 -1 -156 14 -156 5 0 9 72 9 160 0
92 -4 160 -9 160 -17 0 -47 -48 -84 -132 -19 -46 -38 -91 -41 -101 -7 -21 -25
-19 -37 4 -5 8 -24 52 -44 99 -58 135 -80 160 -89 98z"/>
<path d="M2500 886 c0 -8 -5 -16 -10 -18 -13 -4 -120 -253 -120 -279 0 -30 15
-15 30 30 15 48 22 51 117 49 l72 -2 16 -43 c19 -49 41 -59 32 -14 -4 16 -19
58 -35 93 -16 34 -43 93 -60 131 -30 66 -42 81 -42 53z m26 -73 c29 -70 48
-108 57 -114 5 -3 -22 -9 -60 -12 -37 -3 -72 -1 -77 3 -8 8 -1 34 36 133 14
37 26 34 44 -10z"/>
<path d="M4578 808 c-4 -189 -3 -223 6 -221 13 4 18 61 6 68 -13 8 -13 45 0
45 6 0 10 38 10 94 0 126 -19 138 -22 14z"/>
<path d="M5496 863 c-10 -63 -7 -283 4 -283 6 0 10 33 10 78 0 106 10 184 24
179 6 -2 22 -22 36 -44 57 -93 146 -212 158 -213 8 0 12 19 13 63 0 34 0 87 1
117 0 112 -2 141 -12 135 -6 -4 -10 -60 -10 -136 0 -128 -7 -153 -31 -106 -19
37 -171 247 -179 247 -4 0 -10 -17 -14 -37z"/>
<path d="M3512 884 c9 -8 36 -12 86 -13 52 -1 87 -30 76 -64 -12 -41 -35 -57
-80 -57 -69 0 -74 4 -67 66 3 32 1 54 -5 54 -16 0 -21 -40 -16 -145 2 -55 4
-110 4 -123 0 -13 4 -20 10 -17 6 3 10 34 10 68 0 82 8 94 48 73 19 -10 43
-38 64 -78 19 -34 39 -63 46 -66 19 -6 14 12 -18 59 -38 56 -38 84 0 116 51
42 37 105 -28 123 -39 10 -139 14 -130 4z"/>
<path d="M6638 858 c0 -18 -2 -86 -2 -150 l-2 -118 98 0 c59 0 98 4 98 10 0 6
-31 10 -74 10 -100 0 -102 1 -98 58 2 26 7 50 10 54 4 4 40 8 80 9 39 1 72 6
72 10 0 5 -35 9 -77 11 l-78 3 0 55 0 55 78 3 c108 4 97 22 -13 22 l-90 0 -2
-32z"/>
</g>
</svg>
